# xmcd CD database file
#
# Track frame offsets:
#	150
#	3562
#	25837
#	43612
#	66562
#	85762
#	106387
#	130237
#	151837
#	169237
#	192712
#
# Disc length: 2830 seconds
#
# Revision: 5
# Processed by: cddbd v1.5.2PL0 Copyright (c) Steve Scherf et al.
# Submitted via: CDex 1.70beta3
#
DISCID=920b0c0b
DTITLE=sasakure.UK - プロトタイプ　ナナクジャク
DYEAR=2010
DGENRE=Vocaloid
TTITLE0=sasakure.UK - プロローグ
TTITLE1=sasakure.UK feat.初音ミク - ロストエンファウンド
TTITLE2=sasakure.UK feat.初音ミク - トゥイー・ボックスの人形劇場
TTITLE3=sasakure.UK feat.鏡音リン - タイガーランペイジ
TTITLE4=sasakure.UK feat.GUMI - インスパイア インスパイス
TTITLE5=sasakure.UK feat.miki - プレゼンター
TTITLE6=sasakure.UK feat.初音ミク - ナナクジャクの彼方
TTITLE7=sasakure.UK feat.初音ミク - ナキムシピッポ
TTITLE8=sasakure.UK feat.初音ミク - クローバー♣クラブ -ササクレダッテナ MIX-
TTITLE9=sasakure.UK feat.巡音ルカ - ジャストビーフレンズ(Just Be Friends) -トモダチダッテサ MIX-
TTITLE10=sasakure.UK feat.初音ミク - クエスチョンユー１００
EXTD=YEAR: 2010
EXTT0=
EXTT1=
EXTT2=
EXTT3=
EXTT4=
EXTT5=
EXTT6=
EXTT7=
EXTT8=
EXTT9=
EXTT10=
PLAYORDER=
